<?xml version="1.0" encoding="UTF-8"?>
<svg version="1.1" xmlns="http://www.w3.org/2000/svg" width="1536" height="1024">
<path d="M0 0 C506.88 0 1013.76 0 1536 0 C1536 337.92 1536 675.84 1536 1024 C1029.12 1024 522.24 1024 0 1024 C0 686.08 0 348.16 0 0 Z " fill="#FDFDFD" transform="translate(0,0)"/>
<path d="M0 0 C0 70.95 0 141.9 0 215 C-7.59 214.34 -15.18 213.68 -23 213 C-77.19749692 209.38683354 -134.69207955 215.94807928 -177.26953125 252.80859375 C-183.7885233 258.58250397 -189.54050931 264.70432477 -194.9765625 271.50390625 C-196.57710586 273.4783217 -198.18997402 275.22890277 -200 277 C-200.21048648 253.85147785 -200.36906915 230.70311409 -200.46630955 207.55382824 C-200.51266554 196.80452115 -200.57583526 186.05580956 -200.67895508 175.30688477 C-200.76881919 165.93520983 -200.82676145 156.56396626 -200.84679645 147.19187242 C-200.85850352 142.23173846 -200.8859042 137.27283827 -200.95157051 132.31310081 C-201.01295913 127.63829177 -201.03144542 122.96521673 -201.01796913 118.29004288 C-201.02043199 116.58041881 -201.03816061 114.87073286 -201.07284927 113.16145897 C-201.23421751 104.79510675 -201.14644913 98.43062346 -195.61997986 91.60469055 C-194.11184975 90.03847497 -192.57518735 88.49875698 -191 87 C-190.00980946 85.89010784 -189.02768774 84.77289057 -188.05859375 83.64453125 C-185.06211143 80.40690132 -182.0488586 77.18834324 -179 74 C-178.3817334 73.35305176 -177.7634668 72.70610352 -177.12646484 72.03955078 C-168.30400899 62.86956364 -159.26563129 54.52387883 -149 47 C-148.19949219 46.40445313 -147.39898438 45.80890625 -146.57421875 45.1953125 C-144.08747995 43.4000503 -141.55629998 41.69504992 -139 40 C-138.36562012 39.57106445 -137.73124023 39.14212891 -137.07763672 38.70019531 C-124.62923759 30.32566308 -111.83083121 23.78399852 -98 18 C-96.9476416 17.54802246 -96.9476416 17.54802246 -95.87402344 17.08691406 C-66.96943091 4.76144995 -31.32008489 0 0 0 Z " fill="#27914F" transform="translate(973,256)"/>
<path d="M0 0 C17.65189698 1.17679313 17.65189698 1.17679313 23.71484375 1.76171875 C24.45020355 1.83263733 25.18556335 1.90355591 25.94320679 1.97662354 C42.18476193 3.57847987 57.89025186 5.62883223 73.59277344 10.28710938 C75.76505797 10.93042285 77.94348772 11.52741618 80.1328125 12.109375 C113.20941851 21.48221202 144.61952454 40.36537129 169.22949219 64.28076172 C170.48722668 65.50207532 171.75161202 66.71655617 173.02050781 67.92626953 C175.21449889 70.02080635 177.39022802 72.13296143 179.5625 74.25 C180.55237915 75.1949231 180.55237915 75.1949231 181.56225586 76.15893555 C183.797804 78.36942943 185.89639582 80.66269296 188 83 C188.4821558 83.52822955 188.96431159 84.0564591 189.46107817 84.60069561 C198.96274951 95.24668375 201.75055976 103.05180039 201.36230469 117.15625 C201.35891003 118.91227992 201.36083885 120.6683268 201.36761475 122.42434692 C201.37102394 127.139662 201.30105123 131.85122921 201.21672726 136.56568146 C201.14112803 141.51152452 201.13461729 146.45747688 201.12042236 151.40380859 C201.08329327 160.74682665 200.98505548 170.08813679 200.86422849 179.43040657 C200.72956713 190.07603992 200.66398839 200.72175978 200.60388327 211.36803436 C200.47883547 233.24630535 200.26810114 255.12304459 200 277 C196.66013307 273.69876419 193.60271173 270.37015321 190.6875 266.6875 C172.86077709 244.88315325 149.06910094 232.47055274 123 223 C121.84886719 222.5771875 120.69773437 222.154375 119.51171875 221.71875 C83.91429136 209.77265799 44.34953234 209.66723046 7.57006836 214.72460938 C5 215 5 215 0 215 C0 144.05 0 73.1 0 0 Z " fill="#208549" transform="translate(566,256)"/>
<path d="M0 0 C7.26 0 14.52 0 22 0 C22 65.67 22 131.34 22 199 C23.32 198.67 24.64 198.34 26 198 C58.22469709 193.96826093 92.18770201 195.94772463 124 202 C125.14178711 202.20866699 126.28357422 202.41733398 127.45996094 202.63232422 C151.28482461 207.1303497 175.18864806 216.55045279 196 229 C196.61713867 229.36689941 197.23427734 229.73379883 197.87011719 230.11181641 C207.84477086 236.11377938 217.32446423 242.73718762 225 251.5625 C227.9573344 254.53790366 230.1148986 255.72439829 234.3125 256.1875 C240.79737255 255.68934792 243.88899828 251.6908985 248.03125 247.12890625 C263.57208761 230.21835004 287.76280544 219.53324298 309 212 C309.77714355 211.72075684 310.55428711 211.44151367 311.35498047 211.15380859 C340.91183912 200.62390655 371.28731407 196.59892529 402.60058594 196.79418945 C405.62964312 196.81252811 408.65839276 196.81469741 411.6875 196.81445312 C413.67969005 196.81936897 415.6718781 196.82519758 417.6640625 196.83203125 C418.9726976 196.83370049 418.9726976 196.83370049 420.30776978 196.83540344 C429.24738459 196.90057988 438.03553803 197.50197434 447 198 C447 132.66 447 67.32 447 0 C454.26 0 461.52 0 469 0 C469.13812722 5.85505922 469.25743762 11.70442091 469.32958984 17.55981445 C469.3596767 19.54926757 469.40055754 21.53858898 469.45263672 23.52758789 C469.52581125 26.39502515 469.55953679 29.26070244 469.5859375 32.12890625 C469.61690521 33.01147598 469.64787292 33.89404572 469.67977905 34.80335999 C469.68232708 39.52816176 469.24738843 42.25628294 466.1027832 45.88891602 C465.5770723 46.40720474 465.05136139 46.92549347 464.50971985 47.45948792 C461.97435947 50.04655949 460.45564594 53.17623748 458.8125 56.375 C458.47081787 57.02911865 458.12913574 57.6832373 457.77709961 58.35717773 C450.28738919 72.9804622 448.0838323 91.03508771 452.828125 106.96875 C454.30715237 110.7945008 455.96051612 114.49754653 457.75 118.1875 C458.21599609 119.14982544 458.21599609 119.14982544 458.69140625 120.1315918 C460.74274186 124.18334021 460.74274186 124.18334021 463.73457336 127.55523682 C468.40063288 131.9759028 469.44885225 136.15190236 469.74428082 142.34901047 C469.83506036 147.48702443 469.77204423 152.61630103 469.68359375 157.75390625 C469.67052527 159.98305197 469.66056701 162.21221791 469.65357971 164.44139099 C469.62695299 170.28622717 469.55827551 176.12983045 469.48065186 181.97418213 C469.40882711 187.94681117 469.37702709 193.91964096 469.34179688 199.89257812 C469.26690058 211.59559144 469.14755085 223.29769288 469 235 C467.57382696 234.84748447 466.14783651 234.69326093 464.72192383 234.53833008 C463.53074699 234.40978386 463.53074699 234.40978386 462.31550598 234.27864075 C459.07838229 233.88909541 455.8926196 233.28325951 452.6875 232.6875 C449.13003947 232.0909688 445.56633117 231.54076373 442 231 C440.28731934 230.73751465 440.28731934 230.73751465 438.54003906 230.46972656 C399.60722816 224.74993069 357.52057408 222.91575563 319 232 C318.03288086 232.22461914 317.06576172 232.44923828 316.06933594 232.68066406 C298.95448627 236.83393207 275.72086178 244.67701516 264.38476562 259.04760742 C259.99919197 264.11489112 256.06903011 265.50626776 249.57614136 266.03965759 C245.65021907 266.21692045 241.73851169 266.2497542 237.80908203 266.20776367 C234.76729817 266.18761458 231.73953148 266.26849359 228.69921875 266.35742188 C219.24108109 266.4547964 211.71970947 266.31983902 204.48828125 259.6953125 C203.54101728 258.73789627 202.60586128 257.76830806 201.68481445 256.78564453 C192.40475952 247.15707066 177.73445949 240.66720194 165 237 C163.9171875 236.68289063 162.834375 236.36578125 161.71875 236.0390625 C158.15063989 235.00741327 154.57844667 233.99523261 151 233 C150.21143616 232.76845718 149.42287231 232.53691437 148.6104126 232.2983551 C142.07782351 230.42684586 135.6564078 229.15979137 128.9140625 228.33984375 C127.88262115 228.21391342 126.85117981 228.08798309 125.78848267 227.95823669 C113.99105295 226.62795166 102.23498296 226.49690083 90.375 226.5625 C89.23434082 226.56487671 88.09368164 226.56725342 86.91845703 226.56970215 C60.23157933 226.65605843 33.7749279 228.58048239 7.6484375 234.265625 C4 235 4 235 0 235 C0 157.45 0 79.9 0 0 Z " fill="#10673A" transform="translate(535,286)"/>
<path d="M0 0 C23.76 0 47.52 0 72 0 C72 40.92 72 81.84 72 124 C60.285 124.103125 48.57 124.20625 36.5 124.3125 C32.81392578 124.35802002 29.12785156 124.40354004 25.33007812 124.45043945 C20.79589844 124.47302246 20.79589844 124.47302246 18.66687012 124.47721863 C17.19381132 124.48484915 15.72078192 124.50233608 14.2479248 124.52787781 C5.55623349 124.67094689 -0.96270344 124.76309243 -8 119 C-8.66 118.67 -9.32 118.34 -10 118 C-9.9375 116.25 -9.9375 116.25 -9 114 C-6.29950956 111.99159505 -3.44873267 110 0 110 C0 78.65 0 47.3 0 15 C-1.32 14.67 -2.64 14.34 -4 14 C-5.921875 12.80859375 -5.921875 12.80859375 -7.75 11.4375 C-8.36359375 10.98246094 -8.9771875 10.52742188 -9.609375 10.05859375 C-10.06828125 9.70925781 -10.5271875 9.35992187 -11 9 C-10 6 -10 6 -7.96875 4.90234375 C-7.1540625 4.58394531 -6.339375 4.26554687 -5.5 3.9375 C-2.03943188 2.77297997 -2.03943188 2.77297997 0 0 Z " fill="#157A40" transform="translate(455,345)"/>
<path d="M0 0 C1 1 1 1 1.02172852 3.44580078 C0.97459717 4.51813965 0.92746582 5.59047852 0.87890625 6.6953125 C0.80591309 8.47204346 0.80591309 8.47204346 0.73144531 10.28466797 C0.67569336 11.55197754 0.61994141 12.81928711 0.5625 14.125 C0.46330789 16.69264946 0.36563863 19.26035823 0.26953125 21.828125 C0.2226416 23.06755859 0.17575195 24.30699219 0.12744141 25.58398438 C-0.02543217 29.68169921 -0.17178867 33.77507985 -0.25 37.875 C-0.28867187 39.47988281 -0.28867187 39.47988281 -0.328125 41.1171875 C0.07288952 44.64038647 1.16029851 46.98254569 3 50 C6.05480989 52.03653993 6.6564478 52.25025666 10.08984375 52.23046875 C10.87423828 52.22853516 11.65863281 52.22660156 12.46679688 52.22460938 C13.68979492 52.20624023 13.68979492 52.20624023 14.9375 52.1875 C15.74896484 52.18685547 16.56042969 52.18621094 17.39648438 52.18554688 C21.11921141 52.15806161 24.39832704 52.01551881 28 51 C27.65066406 50.41992188 27.30132813 49.83984375 26.94140625 49.2421875 C24.36675733 44.82225197 22.32479235 41.19667767 22 36 C21.94972656 35.32324219 21.89945313 34.64648438 21.84765625 33.94921875 C21.4966342 25.81954799 23.68993433 18.26315438 29 12 C36.17765893 6.1240521 41.58902481 3.37260165 51 4 C59.08821488 5.58849625 64.70242392 9.58989219 69.609375 16.15234375 C73.866833 23.33979392 74.21477531 30.85191525 73 39 C71.55182259 43.6049958 69.30757408 47.77677251 67 52 C78.49818353 52.9584521 89.90536806 53.1222403 101.4375 53.0625 C103.15169138 53.05746829 104.86588421 53.05290837 106.58007812 53.04882812 C110.72008893 53.03797027 114.86002771 53.02080066 119 53 C117.90010742 52.87665283 116.80021484 52.75330566 115.66699219 52.6262207 C114.21024862 52.45556355 112.75354493 52.28456576 111.296875 52.11328125 C110.5735498 52.03307739 109.85022461 51.95287354 109.10498047 51.87023926 C102.35425284 51.06392373 97.48200925 49.61264132 92.625 44.5 C88.26836295 37.79748147 88.28039714 31.93339943 89 24 C91.15801798 16.47609948 96.81296579 11.4855998 103 7 C109.09284127 4.16279753 115.3025899 3.81343859 121.7265625 5.875 C128.41311264 8.94556079 133.00735299 12.69013946 136.11816406 19.41845703 C139.10269537 27.52401078 139.55877465 35.1012108 139.41162109 43.61987305 C139.37475573 45.82712506 139.37060563 48.03270403 139.37109375 50.24023438 C139.32549541 56.86188366 139.03923526 62.68345608 137 69 C111.64846711 72.649578 75.65962827 76.52207128 52.05932617 64.81347656 C45.96526942 62.40619771 39.30378309 65.82253401 33.61328125 68.0625 C26.88542114 70.4760821 20.18842943 70.18359755 13.125 70.1875 C11.96613281 70.19974609 10.80726563 70.21199219 9.61328125 70.22460938 C2.02130449 70.23762419 -3.85472365 70.17749901 -10.25 65.75 C-13.05932177 62.94067823 -14.55882952 60.68299124 -16 57 C-16 56.01 -16 55.02 -16 54 C-17.00353516 54.54140625 -17.00353516 54.54140625 -18.02734375 55.09375 C-24.40079231 58.17353722 -29.87013793 59.49390285 -36.875 59.5 C-37.587771 59.50580078 -38.30054199 59.51160156 -39.03491211 59.51757812 C-44.62973467 59.38638285 -48.76096891 58.1075995 -52.86328125 54.24609375 C-53.34152344 53.64925781 -53.81976562 53.05242188 -54.3125 52.4375 C-54.80363281 51.83808594 -55.29476562 51.23867188 -55.80078125 50.62109375 C-59.65739597 45.40775464 -58.80452911 37.21709449 -58 31 C-55.3623032 22.89924737 -49.36724269 17.88947077 -42 14 C-38.71213652 12.6896897 -35.45463888 11.75494731 -32 11 C-30.515 10.6596875 -30.515 10.6596875 -29 10.3125 C-24.66486793 9.86092374 -20.35415622 9.92255453 -16 10 C-16.04125 9.05125 -16.0825 8.1025 -16.125 7.125 C-16 4 -16 4 -14 2 C-9.21011564 0.30945258 -5.07187898 -0.30431274 0 0 Z " fill="#0C5F37" transform="translate(867,601)"/>
<path d="M0 0 C-0.02320313 1.05058594 -0.04640625 2.10117188 -0.0703125 3.18359375 C-0.08909345 4.6015553 -0.10729112 6.01952466 -0.125 7.4375 C-0.15013672 8.46907227 -0.15013672 8.46907227 -0.17578125 9.52148438 C-0.27449747 20.13347803 3.2067387 27.80628547 8.0625 37.125 C12.83915767 46.59954092 15.9041271 54.30695838 15 65 C20.5494163 59.60473415 22.04684331 53.35434417 24 46 C33.22757177 54.78633653 37.69367072 69.89505991 38.23828125 82.390625 C38.43985375 91.30268336 38.60210001 99.0741611 34 107 C33.43925781 108.03447266 33.43925781 108.03447266 32.8671875 109.08984375 C31.67436676 111.14765701 30.38818738 113.0691218 29 115 C28.55527344 115.62261719 28.11054687 116.24523437 27.65234375 116.88671875 C21.3486942 124.83479862 12.36945973 130.42036018 4 136 C0.6985033 135.88995011 -0.28172012 134.73748807 -2.75 132.4375 C-3.4925 131.633125 -4.235 130.82875 -5 130 C-3.85991933 126.57975798 -3.18947816 126.20086519 -0.3125 124.25 C5.5626746 119.98865253 10.52953333 115.35233334 12 108 C13.28409127 99.36316693 9.81224251 91.62448502 6 84 C5.74605469 84.68707031 5.49210938 85.37414062 5.23046875 86.08203125 C4.88628906 86.98308594 4.54210937 87.88414062 4.1875 88.8125 C3.85105469 89.70582031 3.51460937 90.59914063 3.16796875 91.51953125 C2.02286008 93.951451 1.09668569 95.34528919 -1 97 C-3.73469689 97.41020453 -5.27322357 97.46646468 -7.625 95.95703125 C-9.72120518 92.97351194 -9.44415592 89.83389084 -9.5 86.3125 C-9.83870844 77.77418494 -10.93649498 71.4546989 -17 65 C-17.99 64.505 -17.99 64.505 -19 64 C-18.89042969 65.26714844 -18.78085937 66.53429687 -18.66796875 67.83984375 C-18.67157255 73.97951615 -21.31773486 78.34715238 -24.3125 83.5625 C-32.14511583 97.05661294 -32.14511583 97.05661294 -32.53125 112.2578125 C-30.61492347 118.98776875 -27.47999223 123.94529607 -21.38671875 127.54296875 C-18.95093618 128.77291837 -16.50738951 129.92469659 -14 131 C-15.71547492 134.76624721 -17.11588125 136.3227669 -21 138 C-23.9375 138.125 -23.9375 138.125 -27 137 C-28.28611208 135.34159232 -29.57132845 133.68248076 -30.8515625 132.01953125 C-33.80574049 129.24260394 -37.09482367 127.8150097 -40.75 126.125 C-52.42971497 120.58801897 -60.91685213 113.51532443 -65.45654297 100.93408203 C-70.0926468 84.43488411 -61.45805347 69.33026938 -53.68945312 55.35546875 C-49.92224637 48.37722879 -47.53155834 41.78563901 -46 34 C-42.4226828 35.19243907 -41.94047158 36.15589556 -39.9375 39.25 C-39.43089844 40.01828125 -38.92429687 40.7865625 -38.40234375 41.578125 C-35.01682823 47.42497631 -34.19359942 52.32375331 -35 59 C-36.09629407 62.77506479 -37.46048535 66.38488972 -39 70 C-37.89911495 69.2114447 -36.82024484 68.39216459 -35.75 67.5625 C-35.14671875 67.11003906 -34.5434375 66.65757812 -33.921875 66.19140625 C-26.98637577 58.28324554 -27.6077715 49.37512269 -28 39.4375 C-28.48448845 27.13062823 -27.66984845 19.33025489 -19.06640625 9.890625 C-15.45337273 6.58493838 -11.31594449 4.27002775 -7 2 C-6.30261719 1.61585938 -5.60523438 1.23171875 -4.88671875 0.8359375 C-3 0 -3 0 0 0 Z " fill="#F7B313" transform="translate(783,167)"/>
<path d="M0 0 C1.65118775 1.65118775 1.13580031 3.58230456 1.14526367 5.85522461 C1.15164352 6.8897728 1.15802338 7.92432098 1.16459656 8.99021912 C1.16626579 10.67922081 1.16626579 10.67922081 1.16796875 12.40234375 C1.17129715 13.55037979 1.17462555 14.69841583 1.17805481 15.88124084 C1.18312901 18.31494749 1.18546298 20.74866112 1.18530273 23.18237305 C1.18748854 26.91792192 1.20563746 30.65317535 1.22460938 34.38867188 C1.22754325 36.74739482 1.22952808 39.10611917 1.23046875 41.46484375 C1.23765427 42.58882065 1.24483978 43.71279755 1.25224304 44.87083435 C1.24916641 45.9085347 1.24608978 46.94623505 1.24291992 48.01538086 C1.24434494 48.93169785 1.24576996 49.84801483 1.24723816 50.792099 C1 53 1 53 -1 55 C-5.39745266 55.48942842 -9.82845491 55.37041809 -14.25 55.375 C-15.47847656 55.39949219 -16.70695313 55.42398438 -17.97265625 55.44921875 C-26.22699123 55.47604757 -29.87959407 54.84571221 -35.875 49.25 C-36.24625 48.8375 -36.6175 48.425 -37 48 C-37.48210937 48.42152344 -37.96421875 48.84304688 -38.4609375 49.27734375 C-39.09257813 49.82519531 -39.72421875 50.37304688 -40.375 50.9375 C-41.00148438 51.48277344 -41.62796875 52.02804687 -42.2734375 52.58984375 C-47.2013825 56.61470381 -54.84437752 55.76021142 -60.9375 55.34765625 C-65.66796212 54.55028669 -68.90018036 51.46190684 -72 48 C-72.33 48.99 -72.66 49.98 -73 51 C-79.13446198 55.74926088 -84.88539229 55.60643017 -92.4375 55.5 C-93.53126953 55.51546875 -94.62503906 55.5309375 -95.75195312 55.546875 C-102.67585563 55.51352688 -107.0572145 54.54793164 -113 51 C-114.485 50.505 -114.485 50.505 -116 50 C-117.87411872 50.98115403 -117.87411872 50.98115403 -119.9375 52.375 C-127.86036005 56.65026529 -137.21182319 55.93476026 -146 56 C-146.09796875 56.70125 -146.1959375 57.4025 -146.296875 58.125 C-147.85645002 68.0202346 -150.25408049 74.04932541 -158 80.5546875 C-164.12701869 84.98241585 -170.10988383 84.62693797 -177.4375 83.6875 C-183.48967004 82.51068916 -189.57575817 80.42424183 -194 76 C-194.5 73.6875 -194.5 73.6875 -194 71 C-191.90642794 68.65111427 -190.72118294 67.34253052 -188 66 C-184.6875 66.1875 -184.6875 66.1875 -181 67 C-179.43983195 67.1057741 -177.87611504 67.16699357 -176.3125 67.1875 C-175.58675781 67.20167969 -174.86101562 67.21585938 -174.11328125 67.23046875 C-171.56411904 66.952464 -170.12890591 66.44384046 -168 65 C-165.48998049 61.45969071 -164.62353374 59.01203634 -164.59936523 54.69067383 C-164.58602646 53.65642776 -164.57268768 52.6221817 -164.5589447 51.55659485 C-164.55882889 50.45123886 -164.55871307 49.34588287 -164.55859375 48.20703125 C-164.54538589 47.064655 -164.53217804 45.92227875 -164.51856995 44.74528503 C-164.47769883 41.10099822 -164.45599982 37.45696415 -164.4375 33.8125 C-164.41374845 30.15740018 -164.3857124 26.5025396 -164.34571838 22.84757996 C-164.32127446 20.57399342 -164.30648678 18.30027927 -164.30210876 16.02656555 C-164.29192215 15.00177597 -164.28173553 13.97698639 -164.27124023 12.92114258 C-164.26696518 12.01689041 -164.26269012 11.11263824 -164.25828552 10.1809845 C-164 8 -164 8 -162 6 C-159.43707683 5.82836269 -156.99654143 5.76735442 -154.4375 5.8125 C-153.73947266 5.81314453 -153.04144531 5.81378906 -152.32226562 5.81445312 C-147.14031158 5.85968842 -147.14031158 5.85968842 -146 7 C-145.91209025 9.29151417 -145.89305962 11.58572524 -145.90234375 13.87890625 C-145.9037587 14.5655687 -145.90517365 15.25223114 -145.90663147 15.95970154 C-145.91224521 18.16067801 -145.92479993 20.36155409 -145.9375 22.5625 C-145.94251324 24.05143083 -145.94707645 25.54036324 -145.95117188 27.02929688 C-145.96221907 30.68623075 -145.97949287 34.34310558 -146 38 C-143.75480752 37.86866038 -141.51009786 37.72904917 -139.265625 37.5859375 C-138.01555664 37.50907715 -136.76548828 37.4322168 -135.47753906 37.35302734 C-131.27469312 36.92636944 -128.61580081 36.13660957 -125 34 C-122.64290358 30.46435537 -122.69990265 28.77974745 -122.5859375 24.58203125 C-122.54726563 23.32841797 -122.50859375 22.07480469 -122.46875 20.78320312 C-122.4378125 19.47287109 -122.406875 18.16253906 -122.375 16.8125 C-122.33680662 15.4771884 -122.29775409 14.14190108 -122.2578125 12.80664062 C-122.16341115 9.53799389 -122.08061168 6.26901588 -122 3 C-116.39 3 -110.78 3 -105 3 C-104.98582031 5.11921875 -104.97164062 7.2384375 -104.95703125 9.421875 C-104.92639225 11.48062941 -104.88730916 13.5390629 -104.84741211 15.59765625 C-104.82425541 17.02527467 -104.80984176 18.45306336 -104.80444336 19.88085938 C-104.79513508 21.93727413 -104.75411728 23.99102027 -104.70703125 26.046875 C-104.6913208 27.28276367 -104.67561035 28.51865234 -104.65942383 29.79199219 C-104.26778927 33.15520867 -104.26778927 33.15520867 -101.66674805 35.40356445 C-98.25648154 37.44510366 -95.95391819 37.50141032 -92 37.4375 C-90.80375 37.43621094 -89.6075 37.43492187 -88.375 37.43359375 C-84.75461702 36.9684751 -82.82617877 36.29107507 -80 34 C-79.01654533 31.10349184 -78.83246023 28.31218729 -78.71875 25.26953125 C-78.68136719 24.38458984 -78.64398437 23.49964844 -78.60546875 22.58789062 C-78.53471156 20.7259283 -78.46440461 18.86394882 -78.39453125 17.00195312 C-78.35714844 16.12087891 -78.31976562 15.23980469 -78.28125 14.33203125 C-78.25095703 13.52483643 -78.22066406 12.7176416 -78.18945312 11.88598633 C-78 10 -78 10 -77 9 C-74.46950598 8.92686433 -71.96695163 8.90752473 -69.4375 8.9375 C-68.72658203 8.94201172 -68.01566406 8.94652344 -67.28320312 8.95117188 C-65.52209987 8.96299136 -63.76103964 8.98092737 -62 9 C-61.98018066 9.67579102 -61.96036133 10.35158203 -61.93994141 11.04785156 C-61.84456762 14.11562044 -61.73493835 17.18271998 -61.625 20.25 C-61.57859375 21.84521484 -61.57859375 21.84521484 -61.53125 23.47265625 C-61.49257813 24.49746094 -61.45390625 25.52226563 -61.4140625 26.578125 C-61.3826416 27.52075195 -61.3512207 28.46337891 -61.31884766 29.43457031 C-60.98595484 32.11300654 -60.52759662 33.77815573 -59 36 C-55.63239813 37.1716367 -55.63239813 37.1716367 -52 37 C-49.33705617 34.97808578 -48.15679123 33.75420119 -47.4699707 30.45043945 C-47.45538818 29.51417725 -47.44080566 28.57791504 -47.42578125 27.61328125 C-47.38420898 26.0828418 -47.38420898 26.0828418 -47.34179688 24.52148438 C-47.33212891 23.46251953 -47.32246094 22.40355469 -47.3125 21.3125 C-47.27061624 19.20435056 -47.22523937 17.09626659 -47.17578125 14.98828125 C-47.16458252 14.05540283 -47.15338379 13.12252441 -47.1418457 12.16137695 C-47 10 -47 10 -46 9 C-43.48863896 8.90024968 -41.01096585 8.86117817 -38.5 8.875 C-37.79746094 8.87113281 -37.09492187 8.86726562 -36.37109375 8.86328125 C-31.12661378 8.87338622 -31.12661378 8.87338622 -30 10 C-29.8909158 11.74497165 -29.84417348 13.49392344 -29.82421875 15.2421875 C-29.80037109 16.30824219 -29.77652344 17.37429688 -29.75195312 18.47265625 C-29.70913596 20.7328834 -29.67780325 22.99335855 -29.65820312 25.25390625 C-29.63048828 26.32253906 -29.60277344 27.39117188 -29.57421875 28.4921875 C-29.55234497 29.96727783 -29.55234497 29.96727783 -29.5300293 31.47216797 C-29.21117784 34.11393768 -29.21117784 34.11393768 -27.19458008 35.85986328 C-23.92588559 37.55802807 -21.50012926 36.7924821 -18 36 C-16.09786841 34.09786841 -16.80115973 30.72066075 -16.75390625 28.19140625 C-16.72097094 26.7910093 -16.68775924 25.39061883 -16.65429688 23.99023438 C-16.60683366 21.77372664 -16.56240705 19.5572458 -16.52319336 17.34057617 C-16.48355083 15.20723856 -16.43199041 13.07444569 -16.37890625 10.94140625 C-16.34132202 9.01856812 -16.34132202 9.01856812 -16.30297852 7.05688477 C-16 4 -16 4 -14 2 C-9.15279437 -0.07737384 -5.18200011 -0.26349153 0 0 Z " fill="#0B5F36" transform="translate(659,615)"/>
<path d="M0 0 C0.70253906 0.00386719 1.40507813 0.00773438 2.12890625 0.01171875 C2.83144531 0.00785156 3.53398438 0.00398437 4.2578125 0 C9.50229247 0.01010497 9.50229247 0.01010497 10.62890625 1.13671875 C10.73660708 2.97635986 10.77517293 4.8200863 10.78662109 6.6628418 C10.79688324 7.84464523 10.80714539 9.02644867 10.81771851 10.24406433 C10.82501984 11.53250748 10.83232117 12.82095062 10.83984375 14.1484375 C10.86072509 16.15942402 10.88162384 18.17041053 10.90354347 20.18138599 C10.95676549 25.15560392 11.00083566 30.12983177 11.03027344 35.10424805 C11.05128581 38.56152853 11.08664883 42.01841747 11.13103104 45.4754734 C11.15199496 47.42844423 11.15723105 49.38156349 11.16220093 51.3346405 C11.18705063 53.13098686 11.18705063 53.13098686 11.21240234 54.96362305 C11.22453262 56.53795357 11.22453262 56.53795357 11.23690796 58.14408875 C11.82380132 62.62460491 13.35391966 66.01173058 16.75390625 69.01171875 C23.59651582 71.68926163 30.3196568 69.968459 37.24609375 68.28125 C41.36868699 66.30105357 42.31288741 63.0154821 43.8046875 58.8671875 C44.17980469 57.69800781 44.55492187 56.52882813 44.94140625 55.32421875 C47.02652283 49.35604075 49.28100368 44.72926034 53.62890625 40.13671875 C54.10199219 39.63527344 54.57507813 39.13382813 55.0625 38.6171875 C60.65626775 33.35692352 67.81667954 32.62886587 75.17578125 32.83203125 C81.1172221 33.56998091 85.1669914 36.18048795 88.94140625 40.76171875 C94.80398753 49.69924474 95.08585937 59.0785031 94.96508789 69.453125 C94.94114814 71.66051796 94.94459035 73.86672594 94.95117188 76.07421875 C94.90848347 86.85714153 94.90848347 86.85714153 92.62890625 89.13671875 C89.21442108 89.59636884 85.75820954 89.46871985 82.31640625 89.44921875 C81.3197998 89.4443042 80.32319336 89.43938965 79.29638672 89.43432617 C68.92816429 89.27019211 57.69244165 88.51814239 49.62890625 81.13671875 C49.62890625 80.47671875 49.62890625 79.81671875 49.62890625 79.13671875 C48.8090625 79.70261719 47.98921875 80.26851562 47.14453125 80.8515625 C46.066875 81.58503906 44.98921875 82.31851563 43.87890625 83.07421875 C42.8115625 83.80511719 41.74421875 84.53601563 40.64453125 85.2890625 C34.80928427 88.86428507 28.99521092 88.35334558 22.31640625 88.38671875 C21.29611328 88.40734375 20.27582031 88.42796875 19.22460938 88.44921875 C11.80563718 88.48758448 6.83498715 87.74631948 0.94140625 82.94921875 C-4.4874271 76.3465836 -6.49476701 70.02183846 -6.50048828 61.5480957 C-6.5022406 60.89562866 -6.50399292 60.24316162 -6.50579834 59.57092285 C-6.51018676 57.42225457 -6.50729052 55.27366907 -6.50390625 53.125 C-6.50457991 51.63095585 -6.50555045 50.13691181 -6.50680542 48.64286804 C-6.5082781 45.51670281 -6.50614071 42.3905662 -6.50146484 39.2644043 C-6.49575297 35.24916223 -6.49905846 31.23398679 -6.50503731 27.21874714 C-6.50864188 24.13650506 -6.50750507 21.05427891 -6.50490952 17.97203636 C-6.50424072 16.49079569 -6.50506701 15.00955359 -6.50738907 13.52831459 C-6.5099155 11.46455643 -6.50607588 9.40090813 -6.50048828 7.3371582 C-6.49969269 6.16119583 -6.49889709 4.98523346 -6.49807739 3.77363586 C-6.27208996 -0.91917422 -4.18970158 0.00807264 0 0 Z " fill="#0B5E35" transform="translate(680.37109375,581.86328125)"/>
<path d="M0 0 C1.984375 1.94140625 1.984375 1.94140625 2.3515625 5.046875 C1.984375 7.94140625 1.984375 7.94140625 0.859375 9.81640625 C-2.09197074 11.5872137 -3.59125491 11.5121346 -7.015625 10.94140625 C-8.40278699 10.07548088 -9.75406458 9.15104637 -11.078125 8.19140625 C-22.86189331 -0.25695645 -39.28280597 -1.57714608 -53.2734375 0.40234375 C-65.38318071 3.08988467 -74.32201045 9.29387093 -83.015625 17.94140625 C-83.58023438 18.47121094 -84.14484375 19.00101562 -84.7265625 19.546875 C-94.4330309 29.53580677 -97.28922535 43.19905182 -97.26000977 56.57470703 C-97.0433138 71.46016187 -92.09594718 84.03038749 -81.703125 94.87890625 C-68.35992394 107.42005697 -53.62153725 111.61791216 -35.66015625 111.28125 C-22.21939034 110.61679368 -7.88299221 102.98200906 1.1796875 93.1484375 C10.99920086 81.13972528 15.54702013 68.2276412 15.62060547 52.84350586 C15.6897353 47.38164276 15.6897353 47.38164276 17.3203125 44.9453125 C19.91937804 43.37733165 22.02317804 43.63294823 24.984375 43.94140625 C25.974375 44.60140625 26.964375 45.26140625 27.984375 45.94140625 C28.26529029 48.83815644 28.36136139 51.48606431 28.296875 54.37890625 C28.28487061 55.19568848 28.27286621 56.0124707 28.26049805 56.85400391 C27.83025724 75.34886612 20.8189129 90.79008048 8.171875 104.25390625 C-6.36053481 117.84228156 -24.92504739 124.83211392 -44.734375 124.24609375 C-63.92977926 123.1826121 -80.02411203 114.87183387 -93.015625 100.94140625 C-107.02400215 84.79085458 -111.33849305 66.87057124 -110.015625 45.94140625 C-108.23030694 30.86342303 -99.16280516 15.07520639 -88.015625 4.94140625 C-87.35304688 4.33554687 -86.69046875 3.7296875 -86.0078125 3.10546875 C-60.42407964 -18.93200411 -27.61486381 -16.18667865 0 0 Z " fill="#F7B114" transform="translate(1095.015625,319.05859375)"/>
<path d="M0 0 C5.21052686 4.22631623 7.44108021 8.66568556 8.1953125 15.23828125 C8.03577627 20.21205773 6.02983464 23.7545411 2.7578125 27.42578125 C-0.74783745 30.2425778 -3.66920599 32.42578125 -8.2421875 32.42578125 C-8.14147141 39.49562123 -8.14147141 39.49562123 -4.7421875 45.48828125 C-3.9171875 46.12765625 -3.0921875 46.76703125 -2.2421875 47.42578125 C-0.34333654 49.32463221 -1.11851244 51.99826028 -1.109375 54.515625 C-1.2421875 56.42578125 -1.2421875 56.42578125 -2.2421875 58.42578125 C-1.2728125 58.65265625 -0.3034375 58.87953125 0.6953125 59.11328125 C4.7578125 60.42578125 4.7578125 60.42578125 13.7578125 65.42578125 C13.7578125 75.65578125 13.7578125 85.88578125 13.7578125 96.42578125 C-7.6921875 96.42578125 -29.1421875 96.42578125 -51.2421875 96.42578125 C-50.00027965 84.00670275 -46.85916765 75.91981849 -37.67578125 67.40234375 C-32.18971143 62.94656312 -26.5096045 58.80827688 -19.2421875 58.42578125 C-19.5721875 57.76578125 -19.9021875 57.10578125 -20.2421875 56.42578125 C-20.8233013 49.33619287 -20.8233013 49.33619287 -18.3671875 45.48828125 C-16.2421875 43.42578125 -16.2421875 43.42578125 -14.2421875 42.42578125 C-13.77466962 40.0697889 -13.77466962 40.0697889 -13.6171875 37.36328125 C-13.54242188 36.44417969 -13.46765625 35.52507812 -13.390625 34.578125 C-13.34164062 33.86785156 -13.29265625 33.15757812 -13.2421875 32.42578125 C-14.0671875 32.40515625 -14.8921875 32.38453125 -15.7421875 32.36328125 C-21.40560708 30.84629386 -25.56768483 27.00730619 -28.7421875 22.11328125 C-29.87935354 16.0010138 -30.3341282 10.58474677 -27.1171875 5.05078125 C-24.26736053 1.05456496 -20.94775701 -1.49199095 -16.3671875 -3.32421875 C-9.52857813 -4.12876103 -5.70512852 -3.97121691 0 0 Z " fill="#238F4B" transform="translate(512.2421875,244.57421875)"/>
<path d="M0 0 C23.76 0 47.52 0 72 0 C72 40.92 72 81.84 72 124 C60.285 124.103125 48.57 124.20625 36.5 124.3125 C32.81392578 124.35802002 29.12785156 124.40354004 25.33007812 124.45043945 C20.79589844 124.47302246 20.79589844 124.47302246 18.66687012 124.47721863 C17.19381132 124.48484915 15.72078192 124.50233608 14.2479248 124.52787781 C5.55623349 124.67094689 -0.96270344 124.76309243 -8 119 C-8.66 118.67 -9.32 118.34 -10 118 C-9.9375 116.25 -9.9375 116.25 -9 114 C-6.29950956 111.99159505 -3.44873267 110 0 110 C0 78.65 0 47.3 0 15 C-1.32 14.67 -2.64 14.34 -4 14 C-5.921875 12.80859375 -5.921875 12.80859375 -7.75 11.4375 C-8.36359375 10.98246094 -8.9771875 10.52742188 -9.609375 10.05859375 C-10.06828125 9.70925781 -10.5271875 9.35992187 -11 9 C-10 6 -10 6 -7.96875 4.90234375 C-7.1540625 4.58394531 -6.339375 4.26554687 -5.5 3.9375 C-2.03943188 2.77297997 -2.03943188 2.77297997 0 0 Z M1 18 C1 46.38 1 74.76 1 104 C24.1 104 47.2 104 71 104 C71 75.62 71 47.24 71 18 C47.9 18 24.8 18 1 18 Z " fill="#30A94F" transform="translate(455,345)"/>
<path d="M0 0 C7.75436427 2.83518943 11.82191901 10.68231703 15.2734375 17.69140625 C18.54724245 26.29296385 18.8372863 34.51296013 18.8125 43.6640625 C18.82861328 44.86933594 18.84472656 46.07460938 18.86132812 47.31640625 C18.86197266 48.47785156 18.86261719 49.63929688 18.86328125 50.8359375 C18.86626221 51.88362305 18.86924316 52.93130859 18.87231445 54.01074219 C18.28115838 58.62059663 16.35776924 61.15290654 12.93359375 64.19140625 C8.3541782 66.48892873 4.61526345 66.54004881 -0.4375 66.4765625 C-1.30568359 66.50041016 -2.17386719 66.52425781 -3.06835938 66.54882812 C-8.4614505 66.53659889 -11.83649928 65.68331911 -16.12719727 62.37866211 C-21.17704483 56.99114023 -19.82954875 49.69039806 -19.8125 42.7890625 C-19.82861328 41.50773437 -19.84472656 40.22640625 -19.86132812 38.90625 C-19.86930637 23.33270677 -15.23441507 12.49120721 -4.52734375 1.21484375 C-2.5 -0.0859375 -2.5 -0.0859375 0 0 Z " fill="#F5A318" transform="translate(502.5,372.0859375)"/>
<path d="M0 0 C4.70098312 3.06322126 8.77381815 7.9476637 10.81640625 13.18359375 C11.76877892 20.6722504 11.38453357 26.95956236 7.2578125 33.37890625 C5.38068951 35.72912528 3.2804739 37.47243566 0.81640625 39.18359375 C0.32140625 40.17359375 0.32140625 40.17359375 -0.18359375 41.18359375 C4.10640625 41.51359375 8.39640625 41.84359375 12.81640625 42.18359375 C12.81640625 44.49359375 12.81640625 46.80359375 12.81640625 49.18359375 C-1.9109831 50.21911331 -1.9109831 50.21911331 -6.43359375 46.37109375 C-7.02527344 45.819375 -7.61695313 45.26765625 -8.2265625 44.69921875 C-10.65875873 42.81560171 -12.76137353 42.31577829 -15.74609375 41.62109375 C-21.57411139 40.21655764 -25.85813573 38.36954236 -29.4609375 33.43359375 C-32.73109279 27.66136235 -33.93341357 21.30428497 -32.7421875 14.7578125 C-30.77889984 8.08263445 -27.63726792 4.08644311 -22.12109375 -0.19140625 C-15.63861493 -3.5741845 -6.58984647 -2.87531923 0 0 Z " fill="#F9B418" transform="translate(616.18359375,708.81640625)"/>
<path d="M0 0 C3.375 0.5 3.375 0.5 5.375 1.5625 C7.13117152 4.96508231 6.50182135 6.8823104 5.375 10.5 C2.5420747 14.06920539 -0.84882911 16.98441111 -4.30647278 19.93478394 C-9.61681855 24.50173111 -14.58337348 29.34287757 -19.5078125 34.3203125 C-20.32571259 35.14199921 -21.14361267 35.96368591 -21.98629761 36.81027222 C-24.57665638 39.4127515 -27.16373234 42.01845546 -29.75 44.625 C-33.16634912 48.06802446 -36.58604885 51.50767001 -40.0078125 54.9453125 C-41.1705217 56.12046921 -41.1705217 56.12046921 -42.35671997 57.31936646 C-53.0337642 68.04442701 -53.0337642 68.04442701 -57.4765625 69.31640625 C-62.61627819 67.98365119 -65.46063964 64.24451661 -69 60.4375 C-70.44277772 58.92336187 -71.8880762 57.41162155 -73.3359375 55.90234375 C-74.39699707 54.79221924 -74.39699707 54.79221924 -75.47949219 53.65966797 C-78.16132799 50.9601323 -80.984467 48.47037277 -83.88525391 46.01000977 C-84.45937012 45.51170654 -85.03348633 45.01340332 -85.625 44.5 C-86.18751465 44.01265381 -86.7500293 43.52530762 -87.32958984 43.02319336 C-88.625 41.5 -88.625 41.5 -89 38 C-88.625 34.5 -88.625 34.5 -87.5 32.5625 C-84.52717292 30.87789799 -83.00430618 30.85013343 -79.625 31.5 C-77.71137088 33.02281754 -76.12950814 34.69442928 -74.48046875 36.5 C-72.61137744 38.51468369 -70.65195199 40.27950097 -68.5625 42.0625 C-65.08053096 45.0625591 -61.83415335 48.21061781 -58.625 51.5 C-55.13845524 50.0158627 -52.98308928 48.03785948 -50.375 45.3125 C-47.68487073 42.50946385 -44.93328488 39.87980127 -41.984375 37.35546875 C-36.76705579 32.83513363 -31.96885652 27.91335231 -27.125 23 C-21.65655377 17.45309687 -16.21580111 11.97171544 -10.25610352 6.94897461 C-8.37832176 5.34253734 -8.37832176 5.34253734 -6.0625 2.5625 C-3.625 0.5 -3.625 0.5 0 0 Z " fill="#F9B314" transform="translate(1108.625,335.5)"/>
<path d="M0 0 C7.26 0 14.52 0 22 0 C22.13812722 5.85505922 22.25743762 11.70442091 22.32958984 17.55981445 C22.3596767 19.54926757 22.40055754 21.53858898 22.45263672 23.52758789 C22.52581125 26.39502515 22.55953679 29.26070244 22.5859375 32.12890625 C22.61690521 33.01147598 22.64787292 33.89404572 22.67977905 34.80335999 C22.68232708 39.52816176 22.24738843 42.25628294 19.1027832 45.88891602 C18.5770723 46.40720474 18.05136139 46.92549347 17.50971985 47.45948792 C14.97276599 50.04818547 13.46148931 53.17736555 11.8125 56.375 C11.48314453 56.9834375 11.15378906 57.591875 10.81445312 58.21875 C6.48405923 66.44908114 4.55171916 74.31886955 3.8125 83.5625 C3.73064453 84.47580078 3.64878906 85.38910156 3.56445312 86.33007812 C3.36662519 88.55273313 3.17864676 90.77573555 3 93 C2.67 93 2.34 93 2 93 C1.67 127.98 1.34 162.96 1 199 C-1.31 199 -3.62 199 -6 199 C-6 198.67 -6 198.34 -6 198 C-4.02 198 -2.04 198 0 198 C0 132.66 0 67.32 0 0 Z " fill="#156E40" transform="translate(982,286)"/>
<path d="M0 0 C23.43 0 46.86 0 71 0 C71 5.28 71 10.56 71 16 C61.76782651 16.11328034 52.53611992 16.20487589 43.30340672 16.25906086 C39.01556492 16.2850763 34.72822617 16.32032502 30.44067383 16.37719727 C26.29739933 16.43180736 22.1546065 16.46148102 18.01099968 16.47438622 C16.43581505 16.48357445 14.86065467 16.50151665 13.28567696 16.52865028 C4.52298646 16.67351235 -2.75142428 16.63794094 -10 11 C-9.19482422 7.15820312 -9.19482422 7.15820312 -7.44140625 5.734375 C-2.22222222 3 -2.22222222 3 0 3 C0 2.01 0 1.02 0 0 Z " fill="#209246" transform="translate(455,452)"/>
<path d="M0 0 C3.3 0 6.6 0 10 0 C12.66666667 5.33333333 15.33333333 10.66666667 18 16 C18.37012207 16.67836914 18.74024414 17.35673828 19.12158203 18.05566406 C20 20 20 20 20 23 C20.66 23 21.32 23 22 23 C22.0825 22.35546875 22.165 21.7109375 22.25 21.046875 C23.28612579 16.83761398 25.12217054 13.14354151 27 9.25 C27.55300781 8.08017578 27.55300781 8.08017578 28.1171875 6.88671875 C30.85164037 1.14835963 30.85164037 1.14835963 32 0 C33.68608966 -0.07205511 35.37500659 -0.08386068 37.0625 -0.0625 C37.98160156 -0.05347656 38.90070312 -0.04445313 39.84765625 -0.03515625 C40.55792969 -0.02355469 41.26820313 -0.01195312 42 0 C42.43529153 4.05191587 42.86210831 8.10463466 43.28173828 12.15820312 C43.42502871 13.53148318 43.57046722 14.90454113 43.71826172 16.27734375 C44.64183527 24.87223228 45.2202593 33.34870397 45 42 C42.03 42 39.06 42 36 42 C35.34 32.76 34.68 23.52 34 14 C31.03 20.6 28.06 27.2 25 34 C22.36 34 19.72 34 17 34 C14.03 28.06 11.06 22.12 8 16 C6.80798746 24.6619578 5.68881299 33.28107764 5 42 C2.03 42 -0.94 42 -4 42 C-3.4376458 27.90236201 -1.78382024 13.99008706 0 0 Z " fill="#F9B415" transform="translate(715,708)"/>
<path d="M0 0 C5.7234375 -0.185625 5.7234375 -0.185625 11.5625 -0.375 C13.34636108 -0.45693604 13.34636108 -0.45693604 15.16625977 -0.54052734 C20.43214457 -0.62297996 24.0727107 -0.58421462 28.21484375 2.8984375 C31.17682713 5.88538014 32.17491497 7.98029455 32.3125 12.1875 C32.25565456 17.21426136 31.00884906 19.98820125 28 24 C25.859375 24.6875 25.859375 24.6875 24 25 C24.62648438 25.89203125 25.25296875 26.7840625 25.8984375 27.703125 C26.72409726 28.88531965 27.54961039 30.06761672 28.375 31.25 C28.7875 31.83652344 29.2 32.42304687 29.625 33.02734375 C31.64704088 35.92995082 33.54466545 38.76947715 35 42 C31.07318418 42.85876159 27.89531518 43.09368465 24 42 C20.46451535 38.34834942 15 32.32192476 15 27 C13.02 27 11.04 27 9 27 C9 31.95 9 36.9 9 42 C6.03 42 3.06 42 0 42 C0 28.14 0 14.28 0 0 Z " fill="#F9B316" transform="translate(947,708)"/>
<path d="M0 0 C5.21052686 4.22631623 7.44108021 8.66568556 8.1953125 15.23828125 C8.03586843 20.20918456 6.0326685 23.75919606 2.7578125 27.42578125 C-0.68198029 30.12943161 -4.09485981 32.04333869 -8.2421875 33.42578125 C-8.5721875 35.40578125 -8.9021875 37.38578125 -9.2421875 39.42578125 C-10.7271875 39.92078125 -10.7271875 39.92078125 -12.2421875 40.42578125 C-12.2421875 37.78578125 -12.2421875 35.14578125 -12.2421875 32.42578125 C-13.2321875 32.40515625 -14.2221875 32.38453125 -15.2421875 32.36328125 C-20.47775143 31.6275299 -23.77941585 28.19671525 -27.2421875 24.42578125 C-30.08793782 20.03858284 -29.99007867 14.49139462 -29.2421875 9.42578125 C-27.00147349 3.79995423 -23.60688561 0.27934408 -18.2421875 -2.57421875 C-11.54500204 -5.25309294 -5.68455055 -3.95689303 0 0 Z " fill="#1B7A47" transform="translate(512.2421875,244.57421875)"/>
<path d="M0 0 C19.14 0 38.28 0 58 0 C58 9 58 9 55.25 12.25 C49.44585799 16.49924916 42.22503757 20 35 20 C35.40341629 25.95039021 36.13004831 28.35605797 40 33 C40 35.89996777 39.03213816 36.95867951 37.25 39.25 C35 41 35 41 32.5 41.5 C30 41 30 41 27.625 39.4375 C26 37 26 37 26.125 33.375 C27 30 27 30 29 28 C29.45811675 26.02764667 29.45811675 26.02764667 29.625 23.875 C29.74875 22.59625 29.8725 21.3175 30 20 C28.2675 19.87625 28.2675 19.87625 26.5 19.75 C16.86283801 18.46504507 10.7957317 12.56458437 4 6 C2.86304688 4.93265625 2.86304688 4.93265625 1.703125 3.84375 C0 2 0 2 0 0 Z " fill="#0E6338" transform="translate(469,473)"/>
<path d="M0 0 C0.66 0 1.32 0 2 0 C2.98414433 1.91411557 3.96213349 3.8313967 4.9375 5.75 C5.48277344 6.81734375 6.02804687 7.8846875 6.58984375 8.984375 C8.57594284 13.23165616 9.12487948 16.54965547 9.11352539 21.22753906 C9.11344986 22.26831604 9.11337433 23.30909302 9.11329651 24.38140869 C9.10813522 25.49820007 9.10297394 26.61499146 9.09765625 27.765625 C9.0962413 28.91415955 9.09482635 30.06269409 9.09336853 31.24603271 C9.08777143 34.91404831 9.07521944 38.58200285 9.0625 42.25 C9.05748463 44.73697829 9.05292178 47.22395753 9.04882812 49.7109375 C9.03780295 55.80731519 9.02054027 61.90364724 9 68 C3.72 68 -1.56 68 -7 68 C-8.19918443 65.60163114 -8.15222449 64.05248693 -8.19287109 61.37353516 C-8.20893402 60.41138092 -8.22499695 59.44922668 -8.24154663 58.45791626 C-8.28620295 54.02061701 -8.3271313 49.58346833 -8.35009766 45.14599609 C-8.36657332 42.81646679 -8.39375054 40.48698626 -8.43212891 38.15771484 C-8.88665422 10.41586088 -8.88665422 10.41586088 0 0 Z " fill="#F4AE11" transform="translate(468,372)"/>
<path d="M0 0 C3.3 0 6.6 0 10 0 C13.72050742 8.8299498 17.30170876 17.7097464 20.8125 26.625 C21.31964087 27.90235193 21.82680223 29.17969571 22.33398438 30.45703125 C23.04458008 32.26107422 23.04458008 32.26107422 23.76953125 34.1015625 C24.19854736 35.18775879 24.62756348 36.27395508 25.06958008 37.39306641 C26 40 26 40 26 42 C22.7 42 19.4 42 16 42 C14 38 14 38 14 34 C8.06 34 2.12 34 -4 34 C-4.33 36.31 -4.66 38.62 -5 41 C-6 42 -6 42 -8.06640625 42.09765625 C-8.89011719 42.08605469 -9.71382812 42.07445312 -10.5625 42.0625 C-11.38878906 42.05347656 -12.21507812 42.04445313 -13.06640625 42.03515625 C-13.70449219 42.02355469 -14.34257813 42.01195312 -15 42 C-14.37652097 37.42955961 -13.1920247 33.38827537 -11.6015625 29.0625 C-11.36593597 28.41933838 -11.13030945 27.77617676 -10.88754272 27.11352539 C-10.39078496 25.76127112 -9.89144434 24.40996313 -9.38964844 23.05957031 C-8.6280664 21.00825931 -7.87593079 18.95366823 -7.125 16.8984375 C-4.99524122 11.11664886 -2.84621209 5.47773371 0 0 Z " fill="#F9B51A" transform="translate(786,708)"/>
<path d="M0 0 C2.97 0 5.94 0 9 0 C9 14.19 9 28.38 9 43 C6.03 43 3.06 43 0 43 C0 37.06 0 31.12 0 25 C-6.27 25 -12.54 25 -19 25 C-19 30.94 -19 36.88 -19 43 C-21.97 43 -24.94 43 -28 43 C-28 29.14 -28 15.28 -28 1 C-25.03 1 -22.06 1 -19 1 C-19 6.61 -19 12.22 -19 18 C-12.73 18 -6.46 18 0 18 C0 12.06 0 6.12 0 0 Z " fill="#F9B418" transform="translate(668,707)"/>
<path d="M0 0 C50.68149987 -1.98606748 99.65925476 17.03502633 139 48 C138.67 49.32 138.34 50.64 138 52 C133.81467134 51.89268388 131.44813237 50.77126108 128.3125 48.1875 C115.8992781 38.0482969 101.73900763 30.18662601 87 24 C86.19868652 23.65984863 85.39737305 23.31969727 84.57177734 22.96923828 C60.04301899 12.69642947 34.33585303 8.60094849 7.9296875 6.73364258 C7.05183594 6.66556396 6.17398438 6.59748535 5.26953125 6.52734375 C4.49198486 6.47312256 3.71443848 6.41890137 2.91333008 6.36303711 C1 6 1 6 -1 4 C-0.625 1.875 -0.625 1.875 0 0 Z " fill="#EFF6F2" transform="translate(600,349)"/>
<path d="M0 0 C45.52700174 0.72836009 94.37067212 17.03925721 129.58935547 46.23486328 C130.12834473 46.67958984 130.66733398 47.12431641 131.22265625 47.58251953 C133.90873876 49.91933092 135.61131537 51.60359364 135.96435547 55.23486328 C133.78857422 56.00048828 133.78857422 56.00048828 130.96435547 56.23486328 C128.48388672 54.53173828 128.48388672 54.53173828 125.77685547 51.98486328 C103.60215337 32.22404493 73.59884404 19.83789955 44.96435547 13.23486328 C44.18930664 13.0532666 43.41425781 12.87166992 42.61572266 12.68457031 C30.73339067 9.95257347 18.88062957 8.40972084 6.72412109 7.44921875 C5.61488281 7.34754395 4.50564453 7.24586914 3.36279297 7.14111328 C1.87271729 7.02219727 1.87271729 7.02219727 0.35253906 6.90087891 C-2.03564453 6.23486328 -2.03564453 6.23486328 -3.37304688 4.17822266 C-3.5917041 3.53691406 -3.81036133 2.89560547 -4.03564453 2.23486328 C-2.03564453 0.23486328 -2.03564453 0.23486328 0 0 Z " fill="#F1F8F3" transform="translate(603.03564453125,309.76513671875)"/>
<path d="M0 0 C1.916588 -0.02712153 3.8332873 -0.04645097 5.75 -0.0625 C7.35101562 -0.07990234 7.35101562 -0.07990234 8.984375 -0.09765625 C12 0 12 0 13.82177734 0.48071289 C16.51380978 1.12249198 19.10410637 1.24932044 21.8671875 1.40625 C63.43588435 4.41931417 106.30588678 20.9331278 138 48 C137.67 49.32 137.34 50.64 137 52 C132.320612 51.5069776 129.42682794 49.35398601 125.8125 46.5625 C117.66244299 40.51978202 108.98820462 35.67713856 100 31 C99.3807666 30.67402832 98.7615332 30.34805664 98.12353516 30.01220703 C71.8740353 16.37411737 41.75240776 9.85449983 12.43505859 7.73388672 C7.65601712 7.36411636 3.50164324 6.79618547 -1 5 C-0.67 3.35 -0.34 1.7 0 0 Z " fill="#F0F7F3" transform="translate(601,386)"/>
<path d="M0 0 C0.38218767 1.65614657 0.71395102 3.32457024 1 5 C-0.70650136 6.70650136 -3.00474638 6.37262149 -5.34375 6.578125 C-50.14085358 10.77037584 -90.53559134 22.80737734 -126.56640625 50.36328125 C-127.16759277 50.82259033 -127.7687793 51.28189941 -128.38818359 51.75512695 C-129.71318615 52.7784817 -131.02118595 53.82381388 -132.32421875 54.875 C-134 56 -134 56 -136.25 55.6875 C-136.8275 55.460625 -137.405 55.23375 -138 55 C-137.7788775 51.36448592 -137.13557801 50.13451548 -134.5078125 47.52734375 C-133.39328325 46.64724704 -132.26445007 45.78508434 -131.125 44.9375 C-130.19385376 44.23077148 -130.19385376 44.23077148 -129.24389648 43.50976562 C-110.13936124 29.27804706 -88.96819096 17.59612807 -66 11 C-64.81148437 10.64550781 -63.62296875 10.29101562 -62.3984375 9.92578125 C-58.94021566 8.91242431 -55.48116076 7.93173323 -52 7 C-51.13415283 6.76659912 -50.26830566 6.53319824 -49.3762207 6.29272461 C-41.82581613 4.32189041 -34.27992673 2.94521198 -26.5625 1.8125 C-25.43779297 1.63525391 -24.31308594 1.45800781 -23.15429688 1.27539062 C-15.38591175 0.11972621 -7.84865042 -0.21129425 0 0 Z " fill="#F1F9F3" transform="translate(938,310)"/>
<path d="M0 0 C0.33 1.32 0.66 2.64 1 4 C-4.79254068 5.92556414 -10.24226788 6.42607027 -16.3125 6.8125 C-55.06740363 9.80543438 -104.38677889 22.38677889 -133 51 C-134.66617115 51.04063832 -136.33388095 51.042721 -138 51 C-137.68325581 47.91308629 -137.2799985 46.31644082 -135.19921875 43.96484375 C-104.49321121 19.18036799 -66.59066501 6.57984337 -28 1 C-27.10667969 0.86722656 -26.21335937 0.73445313 -25.29296875 0.59765625 C-16.92786053 -0.4426383 -8.41311706 -0.08248154 0 0 Z " fill="#F1F8F4" transform="translate(938,387)"/>
<path d="M0 0 C0.38218767 1.65614657 0.71395102 3.32457024 1 5 C-0.91613068 6.91613068 -4.38439117 6.45476518 -7.0078125 6.6484375 C-8.48569608 6.76799462 -9.96355999 6.88779502 -11.44140625 7.0078125 C-13.75968493 7.19094925 -16.07809717 7.3714518 -18.39697266 7.546875 C-43.63968227 9.47723211 -67.85412665 15.73664553 -91 26 C-91.69254883 26.30631348 -92.38509766 26.61262695 -93.09863281 26.92822266 C-106.19014336 32.83567902 -119.58173601 40.42275271 -130.40625 49.90625 C-133 52 -133 52 -135.875 51.8125 C-136.57625 51.544375 -137.2775 51.27625 -138 51 C-138 47 -138 47 -136.64916992 45.52709961 C-136.01599854 45.07343018 -135.38282715 44.61976074 -134.73046875 44.15234375 C-133.65925781 43.37636841 -133.65925781 43.37636841 -132.56640625 42.5847168 C-131.78136719 42.04113525 -130.99632812 41.49755371 -130.1875 40.9375 C-129.37796875 40.36749268 -128.5684375 39.79748535 -127.734375 39.21020508 C-100.98901495 20.67338341 -71.15015353 8.37020655 -39 3 C-37.67572998 2.77787842 -37.67572998 2.77787842 -36.32470703 2.55126953 C-24.14992683 0.57150919 -12.32996822 -0.44152406 0 0 Z " fill="#F0F8F3" transform="translate(938,349)"/>
<path d="M0 0 C1.32 0.33 2.64 0.66 4 1 C3.09413399 1.82090118 3.09413399 1.82090118 2.16996765 2.65838623 C-4.75827576 10.13465905 -5.72196077 19.80811572 -5.48828125 29.546875 C-5.48120651 30.68408997 -5.47413177 31.82130493 -5.46684265 32.99298096 C-5.43914187 36.57936015 -5.37644769 40.16410303 -5.3125 43.75 C-5.2873858 46.20049808 -5.26457815 48.65102095 -5.24414062 51.1015625 C-5.18939471 57.06832642 -5.10329143 63.03388706 -5 69 C0.28 69 5.56 69 11 69 C11 53.82 11 38.64 11 23 C11.33 23 11.66 23 12 23 C12.33 38.51 12.66 54.02 13 70 C20.59 70 28.18 70 36 70 C40.51435547 70.26347463 44.94941018 70.55027942 49.4375 71 C50.47841797 71.09539062 51.51933594 71.19078125 52.59179688 71.2890625 C55.06224099 71.5167532 57.53138253 71.75343335 60 72 C60 73.98 60 75.96 60 78 C36.9 78 13.8 78 -10 78 C-10 55.89 -10 33.78 -10 11 C-9.67 11 -9.34 11 -9 11 C-8.67 12.65 -8.34 14.3 -8 16 C-7.01 13.03 -6.02 10.06 -5 7 C-4.34 7 -3.68 7 -3 7 C-2.690625 6.21625 -2.38125 5.4325 -2.0625 4.625 C-1 2 -1 2 0 0 Z " fill="#2A9D47" transform="translate(466,371)"/>
<path d="M0 0 C23.76 0 47.52 0 72 0 C72 40.92 72 81.84 72 124 C48.24 124 24.48 124 0 124 C0 123.67 0 123.34 0 123 C23.43 123 46.86 123 71 123 C71 117.72 71 112.44 71 107 C47.57 107 24.14 107 0 107 C0 76.64 0 46.28 0 15 C23.43 15 46.86 15 71 15 C71 10.38 71 5.76 71 1 C47.57 1 24.14 1 0 1 C0 0.67 0 0.34 0 0 Z M1 18 C1 46.38 1 74.76 1 104 C24.1 104 47.2 104 71 104 C71 75.62 71 47.24 71 18 C47.9 18 24.8 18 1 18 Z " fill="#8C9B59" transform="translate(455,345)"/>
<path d="M0 0 C1.88154202 0.94580187 3.70113503 2.01309685 5.50390625 3.1015625 C5.50390625 5.4115625 5.50390625 7.7215625 5.50390625 10.1015625 C-0.12109375 10.3515625 -0.12109375 10.3515625 -3.49609375 8.1015625 C-5.55318971 7.86100782 -5.55318971 7.86100782 -7.68359375 7.9765625 C-8.94171875 8.0178125 -10.19984375 8.0590625 -11.49609375 8.1015625 C-11.82609375 9.7515625 -12.15609375 11.4015625 -12.49609375 13.1015625 C-9.5244931 14.65811522 -6.70313752 16.03686132 -3.49609375 17.0390625 C1.28770663 18.73332513 4.6806275 20.86664437 7.50390625 25.1015625 C8.18681939 29.78666428 8.18126469 33.82812863 5.94140625 38.0390625 C0.9974423 42.22241661 -3.86153334 43.61601662 -10.21484375 43.3984375 C-14.83174703 42.79760762 -19.15208016 41.44557609 -22.49609375 38.1015625 C-22.62109375 34.9765625 -22.62109375 34.9765625 -22.49609375 32.1015625 C-16.96729794 31.8502536 -16.96729794 31.8502536 -14.62109375 33.1015625 C-11.23905472 34.69311028 -8.21032038 34.28128314 -4.49609375 34.1015625 C-3.50609375 33.6065625 -3.50609375 33.6065625 -2.49609375 33.1015625 C-2.49609375 31.4515625 -2.49609375 29.8015625 -2.49609375 28.1015625 C-3.52089844 27.73804688 -4.54570313 27.37453125 -5.6015625 27 C-6.96259234 26.49313371 -8.32325017 25.98526773 -9.68359375 25.4765625 C-10.35712891 25.24066406 -11.03066406 25.00476563 -11.72460938 24.76171875 C-16.8252832 22.82097456 -19.44863891 20.66403775 -22.49609375 16.1015625 C-23.55764884 12.35489749 -23.36909444 8.72039449 -21.50390625 5.26171875 C-16.097704 -1.60516547 -8.10022831 -2.91557513 0 0 Z " fill="#FAB518" transform="translate(843.49609375,707.8984375)"/>
<path d="M0 0 C8.91 0 17.82 0 27 0 C27 2.31 27 4.62 27 7 C21.06 7 15.12 7 9 7 C9 10.3 9 13.6 9 17 C13.95 17 18.9 17 24 17 C24 19.31 24 21.62 24 24 C19.05 24 14.1 24 9 24 C9 27.63 9 31.26 9 35 C15.27 35 21.54 35 28 35 C28 37.31 28 39.62 28 42 C18.76 42 9.52 42 0 42 C0 28.14 0 14.28 0 0 Z " fill="#F9B314" transform="translate(906,708)"/>
<path d="M0 0 C8.91 0 17.82 0 27 0 C27 2.64 27 5.28 27 8 C21.06 8 15.12 8 9 8 C9 11.63 9 15.26 9 19 C14.28 19 19.56 19 25 19 C25 21.31 25 23.62 25 26 C19.72 26 14.44 26 9 26 C9 31.61 9 37.22 9 43 C6.03 43 3.06 43 0 43 C0 28.81 0 14.62 0 0 Z " fill="#FBBA1F" transform="translate(521,707)"/>
<path d="M0 0 C3.92300272 1.82504909 6.73787272 4.18270826 10 7 C12.56426499 5.90102929 14.03345517 4.96330723 15.9375 2.875 C18 1 18 1 20.32421875 0.62109375 C23.95466008 1.13518544 25.31094372 2.61083361 27.875 5.1875 C28.67679688 5.96480469 29.47859375 6.74210938 30.3046875 7.54296875 C32 10 32 10 31.9609375 12.56640625 C30.02666489 17.46499095 26.05134006 20.87176297 21.5 23.375 C17.18242871 22.72736431 14.76107041 19.19074707 12 16 C9.08356325 17.31332141 7.78934406 18.23226168 5.5625 20.6875 C3 23 3 23 0.61328125 22.87890625 C-2.47517354 21.84018827 -4.06495971 20.53427775 -6.375 18.25 C-7.08398438 17.57453125 -7.79296875 16.8990625 -8.5234375 16.203125 C-10 14 -10 14 -10.01171875 11.53515625 C-8.72127321 8.30156877 -6.96238085 6.57013404 -4.4375 4.1875 C-3.61121094 3.39730469 -2.78492188 2.60710938 -1.93359375 1.79296875 C-1.29550781 1.20128906 -0.65742187 0.60960937 0 0 Z " fill="#0D5F38" transform="translate(536,582)"/>
<path d="M0 0 C2.26912475 1.05832696 3.87031225 2.30661035 5.7265625 3.984375 C6.64695312 4.80615234 6.64695312 4.80615234 7.5859375 5.64453125 C8.04484375 6.06605469 8.50375 6.48757813 8.9765625 6.921875 C11.89299925 5.60855359 13.18721844 4.68961332 15.4140625 2.234375 C17.9765625 -0.078125 17.9765625 -0.078125 20.36328125 0.04296875 C23.45173604 1.08168673 25.04152221 2.38759725 27.3515625 4.671875 C28.06054688 5.34734375 28.76953125 6.0228125 29.5 6.71875 C30.9765625 8.921875 30.9765625 8.921875 30.9375 11.4140625 C29.8046598 14.37049913 28.44930469 16.04906429 26.2265625 18.296875 C25.21335937 19.36035156 25.21335937 19.36035156 24.1796875 20.4453125 C21.9765625 21.921875 21.9765625 21.921875 19.44921875 21.83984375 C16.79786478 20.85553382 15.23496307 19.767852 13.1640625 17.859375 C12.55949219 17.31152344 11.95492187 16.76367188 11.33203125 16.19921875 C10.88472656 15.77769531 10.43742188 15.35617187 9.9765625 14.921875 C9.52925781 15.34339844 9.08195313 15.76492188 8.62109375 16.19921875 C8.01652344 16.74707031 7.41195312 17.29492188 6.7890625 17.859375 C5.90154297 18.67728516 5.90154297 18.67728516 4.99609375 19.51171875 C2.48605255 21.26437808 1.05968108 21.921875 -2.0234375 21.921875 C-4.69921875 19.83203125 -4.69921875 19.83203125 -7.3359375 16.984375 C-8.21894531 16.04722656 -9.10195313 15.11007812 -10.01171875 14.14453125 C-10.67558594 13.41105469 -11.33945312 12.67757812 -12.0234375 11.921875 C-10.55717894 8.57366602 -8.68685303 6.22921141 -6.1484375 3.609375 C-5.13136719 2.53236328 -5.13136719 2.53236328 -4.09375 1.43359375 C-2.0234375 -0.078125 -2.0234375 -0.078125 0 0 Z " fill="#0D6038" transform="translate(906.0234375,573.078125)"/>
<path d="M0 0 C4.27443772 1.76552862 5.94721566 3.92326256 8 8 C8.3984375 10.9375 8.3984375 10.9375 8.375 14 C8.38273438 15.010625 8.39046875 16.02125 8.3984375 17.0625 C7.81501452 21.36381449 6.15308142 24.01648937 2.875 26.8125 C-1.14845209 28.47436065 -4.71306896 28.84026961 -9 28 C-12.36216085 25.42472786 -14.40747994 22.89128816 -16 19 C-16.62008652 14.31345135 -17.12742356 9.2338913 -14.94921875 4.91796875 C-10.5579952 -0.40590405 -6.5066456 -0.62021752 0 0 Z " fill="#FDFCF8" transform="translate(609,715)"/>
<path d="M0 0 C11.22 0 22.44 0 34 0 C34 2.31 34 4.62 34 7 C30.04 7 26.08 7 22 7 C22 18.55 22 30.1 22 42 C19.03 42 16.06 42 13 42 C13 30.45 13 18.9 13 7 C8.71 7 4.42 7 0 7 C0 4.69 0 2.38 0 0 Z " fill="#FAB416" transform="translate(860,708)"/>
<path d="M0 0 C2.22818441 0.06937062 4.45834524 0.08457084 6.6875 0.0625 C7.86699219 0.05347656 9.04648437 0.04445313 10.26171875 0.03515625 C11.61716797 0.01775391 11.61716797 0.01775391 13 0 C13 2.64 13 5.28 13 8 C-11.42 8 -35.84 8 -61 8 C-61.33 7.01 -61.66 6.02 -62 5 C-50.76082127 0.05548488 -37.11908016 0.50329619 -25.01879883 -0.06030273 C-22.27826605 -0.18910901 -19.53863458 -0.33125448 -16.79882812 -0.47460938 C-15.04951754 -0.56067938 -13.30016962 -0.64599452 -11.55078125 -0.73046875 C-10.7352327 -0.77310349 -9.91968414 -0.81573822 -9.079422 -0.85966492 C-5.74378119 -1.0083025 -3.19671715 -1.06557238 0 0 Z " fill="#1F9143" transform="translate(513,352)"/>
<path d="M0 0 C3.0625 1.875 3.0625 1.875 5 5 C6.01697283 10.93398712 5.37977168 15.93034247 2 21 C0.1875 23.4375 0.1875 23.4375 -2 25 C-4.875 25.3125 -4.875 25.3125 -8 24 C-12.08095338 19.88194704 -14.38197966 15.57234472 -14.6875 9.75 C-14.43692154 6.25279623 -13.97105116 4.95330832 -12.0625 1.875 C-7.92855095 -0.65598921 -4.72506298 -1.02533012 0 0 Z " fill="#F7F9F8" transform="translate(919,624)"/>
<path d="M0 0 C2.97 0 5.94 0 9 0 C9 13.86 9 27.72 9 42 C6.03 42 3.06 42 0 42 C0 28.14 0 14.28 0 0 Z " fill="#F8B417" transform="translate(561,708)"/>
<path d="M0 0 C7.26 0 14.52 0 22 0 C22 31.02 22 62.04 22 94 C21.67 94 21.34 94 21 94 C20.67 63.97 20.34 33.94 20 3 C14.72 2.67 9.44 2.34 4 2 C3.01 1.67 2.02 1.34 1 1 C1 77.89 1 154.78 1 234 C1.99 234.33 2.98 234.66 4 235 C2.68 235 1.36 235 0 235 C0 157.45 0 79.9 0 0 Z " fill="#297F51" transform="translate(535,286)"/>
<path d="M0 0 C2.75329021 1.79562405 4.52627461 3.05254922 6 6 C6.07116382 8.37402501 6.08409085 10.75000677 6.0625 13.125 C6.05347656 14.40632812 6.04445313 15.68765625 6.03515625 17.0078125 C6.02355469 17.99523437 6.01195312 18.98265625 6 20 C-6.7981748 20.55914356 -6.7981748 20.55914356 -12 17 C-14 15 -14 15 -14.375 11.75 C-13.93710288 7.3710288 -12.75374958 5.38317805 -10 2 C-6.2626144 -0.4915904 -4.42668417 -0.45793285 0 0 Z " fill="#F4F8F6" transform="translate(754,633)"/>
<path d="M0 0 C3.68773373 1.67624261 5.85783496 3.57253594 8 7 C8.96070434 9.88211302 9.10581883 11.69850044 9.0625 14.6875 C9.05347656 15.49574219 9.04445313 16.30398438 9.03515625 17.13671875 C9.02355469 17.75160156 9.01195312 18.36648438 9 19 C-5.04929577 19.76056338 -5.04929577 19.76056338 -11 15 C-13.19739504 12.34481433 -13.00005992 11.00335577 -12.9375 7.5 C-12 4 -12 4 -9.875 1.5625 C-6.24560408 -0.40999778 -4.08210558 -0.5102632 0 0 Z " fill="#F1F5F3" transform="translate(983,622)"/>
<path d="M0 0 C0.26460941 11.44435719 0.26460941 11.44435719 -2.42578125 14.75390625 C-7.81467136 17.77748641 -15.02742185 18.20336389 -21 17 C-23.31932912 14.64583117 -23.93688267 13.32961271 -24.5625 10.0625 C-23.91270237 6.52471293 -22.72208995 5.13801396 -19.828125 3.03515625 C-13.61369836 -0.48369644 -6.92034505 -0.25525863 0 0 Z " fill="#F2F6F4" transform="translate(850,627)"/>
<path d="M0 0 C3.02884613 1.32026626 4.63235239 2.89903311 6.8125 5.375 C7.52148438 6.15488281 8.23046875 6.93476562 8.9609375 7.73828125 C10.4375 10.0625 10.4375 10.0625 10.39453125 12.0859375 C8.38297175 16.24042365 5.08343442 19.30450533 1.4375 22.0625 C-1.625 22.5 -1.625 22.5 -4.5625 21.0625 C-7.7877888 18.4769379 -10.62671679 15.86009147 -12.55078125 12.1640625 C-12.5625 10.0625 -12.5625 10.0625 -10.6484375 7.44921875 C-9.75382813 6.55847656 -8.85921875 5.66773438 -7.9375 4.75 C-7.05835938 3.84636719 -6.17921875 2.94273437 -5.2734375 2.01171875 C-2.5625 0.0625 -2.5625 0.0625 0 0 Z " fill="#10633C" transform="translate(981.5625,572.9375)"/>
<path d="M0 0 C0.33 0 0.66 0 1 0 C1.33 15.51 1.66 31.02 2 47 C9.59 47 17.18 47 25 47 C29.51435547 47.26347463 33.94941018 47.55027942 38.4375 48 C39.47841797 48.09539062 40.51933594 48.19078125 41.59179688 48.2890625 C44.06224099 48.5167532 46.53138253 48.75343335 49 49 C49 49.66 49 50.32 49 51 C35.40453971 52.39026669 21.77275356 52.11152609 8.125 52.0625 C5.68359467 52.0574752 3.24218833 52.05291403 0.80078125 52.04882812 C-5.13283462 52.03789966 -11.06641254 52.0212392 -17 52 C-15.60804085 49.2160817 -13.84424221 49.02101003 -11 48 C-12.65 47.67 -14.3 47.34 -16 47 C-16 46.67 -16 46.34 -16 46 C-10.72 46 -5.44 46 0 46 C0 30.82 0 15.64 0 0 Z " fill="#638D37" transform="translate(477,394)"/>
<path d="M0 0 C3.03978021 0.68164768 4.80055419 2.23591662 6.93359375 4.43359375 C8.48383839 7.53408303 8.2235139 10.01253593 7.93359375 13.43359375 C6.1379697 16.18688396 4.88104453 17.95986836 1.93359375 19.43359375 C-5.27720583 20.01510985 -5.27720583 20.01510985 -8.44140625 17.68359375 C-12.09184345 12.62914224 -12.09184345 12.62914224 -12.00390625 8.49609375 C-10.06773171 2.17125693 -6.42326952 -0.40069545 0 0 Z " fill="#F7FAF8" transform="translate(503.06640625,249.56640625)"/>
<path d="M0 0 C0 1.32 0 2.64 0 4 C-23.1 4 -46.2 4 -70 4 C-70 3.01 -70 2.02 -70 1 C-62.28112007 0.85577171 -54.56220435 0.71358605 -46.84326172 0.57275391 C-44.22281055 0.52471069 -41.60236759 0.47621695 -38.98193359 0.42724609 C-35.19370616 0.35653251 -31.40545115 0.28749312 -27.6171875 0.21875 C-26.46451385 0.19687622 -25.31184021 0.17500244 -24.12423706 0.15246582 C-16.08208201 0.00872033 -8.04335611 -0.02394054 0 0 Z " fill="#0C613C" transform="translate(526,445)"/>
<path d="M0 0 C0.86825912 0.00222061 1.73651825 0.00444122 2.63108826 0.00672913 C3.61202957 0.00680466 4.59297089 0.00688019 5.6036377 0.00695801 C6.6702916 0.01211929 7.7369455 0.01728058 8.83592224 0.02259827 C10.46520912 0.02472069 10.46520912 0.02472069 12.12741089 0.02688599 C15.61230674 0.03250403 19.09713941 0.04505959 22.58201599 0.05775452 C24.93813486 0.06276719 27.29425473 0.0673305 29.65037537 0.07142639 C35.44011063 0.08247933 41.2298088 0.09923501 47.01951599 0.12025452 C47.01951599 1.11025452 47.01951599 2.10025452 47.01951599 3.12025452 C23.58951599 3.12025452 0.15951599 3.12025452 -23.98048401 3.12025452 C-23.98048401 2.79025452 -23.98048401 2.46025452 -23.98048401 2.12025452 C-23.34956848 2.09519836 -22.71865295 2.07014221 -22.06861877 2.04432678 C-19.22651576 1.92871315 -16.38477318 1.80583136 -13.54298401 1.68275452 C-12.54976135 1.64343811 -11.5565387 1.6041217 -10.53321838 1.56361389 C-9.5889801 1.52171936 -8.64474182 1.47982483 -7.67189026 1.43666077 C-6.79734192 1.40000305 -5.92279358 1.36334534 -5.02174377 1.32557678 C-2.63561153 1.08556516 -2.37748309 0.14436021 0 0 Z " fill="#0C6B35" transform="translate(478.98048400878906,356.87974548339844)"/>
<path d="M0 0 C0.309375 0.639375 0.61875 1.27875 0.9375 1.9375 C1.8345163 3.93610821 1.8345163 3.93610821 3 5 C3.33 3.35 3.66 1.7 4 0 C4.33 0 4.66 0 5 0 C5.12375 1.8253125 5.12375 1.8253125 5.25 3.6875 C5.73472475 7.85172624 7.32064932 9.78477918 10 13 C10 15.89996777 9.03213816 16.95867951 7.25 19.25 C5 21 5 21 2.5 21.5 C0 21 0 21 -2.375 19.4375 C-4 17 -4 17 -3.875 13.375 C-3 10 -3 10 -1 8 C-0.54188325 6.02764667 -0.54188325 6.02764667 -0.375 3.875 C-0.25125 2.59625 -0.1275 1.3175 0 0 Z " fill="#13683F" transform="translate(499,493)"/>
<path d="M0 0 C1.5675 -0.061875 3.135 -0.12375 4.75 -0.1875 C6.07257812 -0.23970703 6.07257812 -0.23970703 7.421875 -0.29296875 C10.50039296 0.05686284 11.80816743 0.83839961 14 3 C14.4375 6 14.4375 6 14 9 C12.45493534 11.03667615 11.27853844 11.86073078 9 13 C5.99525503 13.13559318 3.00931153 13.04299016 0 13 C0 8.71 0 4.42 0 0 Z " fill="#FDF9EF" transform="translate(956,715)"/>
<path d="M0 0 C0.99 0 1.98 0 3 0 C3.06058594 1.15757812 3.12117188 2.31515625 3.18359375 3.5078125 C3.26805502 5.04688457 3.35270018 6.58594655 3.4375 8.125 C3.47681641 8.88554687 3.51613281 9.64609375 3.55664062 10.4296875 C3.59853516 11.17734375 3.64042969 11.925 3.68359375 12.6953125 C3.72025146 13.37609863 3.75690918 14.05688477 3.79467773 14.75830078 C4.04791962 17.52318424 4.54355333 20.26131995 5 23 C9.95 23 14.9 23 20 23 C20 23.33 20 23.66 20 24 C19.02160156 24.05607422 19.02160156 24.05607422 18.0234375 24.11328125 C12.60356484 24.52097079 8.82752506 25.35635532 4 28 C2.68 28 1.36 28 0 28 C0 18.76 0 9.52 0 0 Z " fill="#158B44" transform="translate(456,418)"/>
<path d="M0 0 C0.87789688 -0.0033284 1.75579376 -0.0066568 2.66029358 -0.01008606 C4.51888504 -0.01515343 6.37748562 -0.01749444 8.23608398 -0.01733398 C11.08267172 -0.01951974 13.92887154 -0.03767533 16.77539062 -0.05664062 C18.57942575 -0.0595747 20.38346273 -0.0615594 22.1875 -0.0625 C23.46728981 -0.07327827 23.46728981 -0.07327827 24.77293396 -0.08427429 C30.8169144 -0.06085915 30.8169144 -0.06085915 34.16015625 2.16796875 C31.0349673 4.53553614 29.5813428 5.19013646 25.59765625 4.98046875 C22.16015625 4.16796875 22.16015625 4.16796875 20.35253906 3.11572266 C17.33458015 1.81107717 14.9191073 2.04256188 11.64453125 2.19140625 C10.39414062 2.24296875 9.14375 2.29453125 7.85546875 2.34765625 C5.90253906 2.44433594 5.90253906 2.44433594 3.91015625 2.54296875 C2.59273438 2.5996875 1.2753125 2.65640625 -0.08203125 2.71484375 C-3.33518781 2.85628534 -6.58756927 3.00769889 -9.83984375 3.16796875 C-10.16984375 2.50796875 -10.49984375 1.84796875 -10.83984375 1.16796875 C-7.4819447 -0.51098077 -3.69299629 0.00480539 0 0 Z " fill="#32B251" transform="translate(463.83984375,453.83203125)"/>
<path d="M0 0 C0.33 0 0.66 0 1 0 C1 2.97 1 5.94 1 9 C-19.13 9 -39.26 9 -60 9 C-60 8.67 -60 8.34 -60 8 C-59.41197601 7.99413376 -58.82395203 7.98826752 -58.21810913 7.98222351 C-52.08568483 7.91817991 -45.95378 7.83373194 -39.82177734 7.73754883 C-37.53473774 7.70433994 -35.24761697 7.67629549 -32.96044922 7.65356445 C-29.66859422 7.6199449 -26.37748028 7.56762376 -23.0859375 7.51171875 C-22.06696381 7.50532883 -21.04799011 7.4989389 -19.99813843 7.49235535 C-14.49647774 7.37898119 -10.84701708 6.8483392 -6 4 C-2.625 3.8125 -2.625 3.8125 0 4 C0 2.68 0 1.36 0 0 Z " fill="#0D7037" transform="translate(525,459)"/>
<path d="M0 0 C0.66 0 1.32 0 2 0 C3.65 5.28 5.3 10.56 7 16 C3.37 16 -0.26 16 -4 16 C-3.39891424 10.34979382 -1.92471317 5.33835539 0 0 Z " fill="#FDF8E9" transform="translate(790,718)"/>
<path d="M0 0 C0.495 1.98 0.495 1.98 1 4 C-1.3958577 5.19792885 -2.852416 5.11457381 -5.52563477 5.09765625 C-6.46323135 5.09435303 -7.40082794 5.0910498 -8.36683655 5.08764648 C-9.38144455 5.07934814 -10.39605255 5.0710498 -11.44140625 5.0625 C-12.47941879 5.05871338 -13.51743134 5.05492676 -14.5868988 5.05102539 C-17.91214059 5.03877456 -21.23729717 5.02013967 -24.5625 5 C-28.93879963 4.97353616 -33.31505722 4.95347944 -37.69140625 4.9375 C-38.70803848 4.92920166 -39.72467072 4.92090332 -40.77210999 4.91235352 C-42.17377663 4.90739868 -42.17377663 4.90739868 -43.60375977 4.90234375 C-44.4304567 4.89710693 -45.25715363 4.89187012 -46.10890198 4.88647461 C-48.01200943 4.79085486 -48.01200943 4.79085486 -49 6 C-50.41570123 6.08651611 -51.835595 6.10704904 -53.25390625 6.09765625 C-54.10791016 6.09443359 -54.96191406 6.09121094 -55.84179688 6.08789062 C-56.73962891 6.07951172 -57.63746094 6.07113281 -58.5625 6.0625 C-59.46419922 6.05798828 -60.36589844 6.05347656 -61.29492188 6.04882812 C-63.53001314 6.03700225 -65.76497437 6.0205222 -68 6 C-68 5.67 -68 5.34 -68 5 C-45.53678378 2.01841331 -22.63673649 1.69317676 0 2 C0 1.34 0 0.68 0 0 Z " fill="#177F3A" transform="translate(525,353)"/>
<path d="M0 0 C5.09066226 0.09341361 10.18084204 0.19947911 15.27099609 0.31738281 C17.00334407 0.35571341 18.73577274 0.39055906 20.46826172 0.421875 C22.95569749 0.46743765 25.44257566 0.52544503 27.9296875 0.5859375 C28.70682098 0.59748871 29.48395447 0.60903992 30.28463745 0.62094116 C35.77225659 0.77225659 35.77225659 0.77225659 38 3 C25.46 3 12.92 3 0 3 C0 2.01 0 1.02 0 0 Z " fill="#086D3A" transform="translate(456,446)"/>
<path d="M0 0 C0.66 0.33 1.32 0.66 2 1 C-0.29982009 4.12619612 -2.53175009 6.22164904 -6 8 C-11.65323841 8.64446648 -17.39427406 7.75804703 -23 7 C-23 6.34 -23 5.68 -23 5 C-21.49759766 4.94392578 -21.49759766 4.94392578 -19.96484375 4.88671875 C-9.18862544 4.84329903 -9.18862544 4.84329903 0 0 Z " fill="#196F47" transform="translate(516,434)"/>
<path d="M0 0 C0.33 0 0.66 0 1 0 C1.0872253 4.39570794 1.14046869 8.79119271 1.1875 13.1875 C1.21263672 14.43337891 1.23777344 15.67925781 1.26367188 16.96289062 C1.27817383 18.7659668 1.27817383 18.7659668 1.29296875 20.60546875 C1.3086792 21.71043701 1.32438965 22.81540527 1.34057617 23.95385742 C0.95428769 27.40885486 0.11485136 29.25969458 -2 32 C-3.485 32.495 -3.485 32.495 -5 33 C-5 32.01 -5 31.02 -5 30 C-4.01 29.67 -3.02 29.34 -2 29 C-2.01160156 28.07316406 -2.02320313 27.14632813 -2.03515625 26.19140625 C-2.04417969 24.99386719 -2.05320312 23.79632813 -2.0625 22.5625 C-2.07410156 21.36753906 -2.08570313 20.17257812 -2.09765625 18.94140625 C-2 16 -2 16 -1 15 C-0.76346477 12.47403741 -0.57826308 9.96892793 -0.4375 7.4375 C-0.37272461 6.37112305 -0.37272461 6.37112305 -0.30664062 5.28320312 C-0.20028223 3.52238088 -0.09961154 1.7612168 0 0 Z " fill="#E0811E" transform="translate(520,402)"/>
<path d="M0 0 C0.33 0 0.66 0 1 0 C1 2.64 1 5.28 1 8 C-3.29 8 -7.58 8 -12 8 C-11 6 -11 6 -8.8125 4.875 C-5.73230669 3.91671764 -3.20690052 3.85084184 0 4 C0 2.68 0 1.36 0 0 Z " fill="#127D3D" transform="translate(525,459)"/>
<path d="M0 0 C1.32 0.33 2.64 0.66 4 1 C3.4225 1.45375 2.845 1.9075 2.25 2.375 C-0.96581797 6.12678764 -2.34535275 10.38811087 -4 15 C-4.66 15 -5.32 15 -6 15 C-5.67 12.36 -5.34 9.72 -5 7 C-4.34 7 -3.68 7 -3 7 C-2.690625 6.21625 -2.38125 5.4325 -2.0625 4.625 C-1 2 -1 2 0 0 Z " fill="#269443" transform="translate(466,371)"/>
<path d="M0 0 C0 0.33 0 0.66 0 1 C-3.99795892 1.95619733 -7.70803922 2.1039592 -11.8125 2.0625 C-12.97394531 2.05347656 -14.13539063 2.04445313 -15.33203125 2.03515625 C-16.21246094 2.02355469 -17.09289062 2.01195312 -18 2 C-17.67 1.34 -17.34 0.68 -17 0 C-11.27461084 -1.26134052 -5.71403464 -1.1179633 0 0 Z " fill="#2E8344" transform="translate(483,442)"/>
<path d="M0 0 C6.27 0 12.54 0 19 0 C18.67 0.99 18.34 1.98 18 3 C16.845 2.835 15.69 2.67 14.5 2.5 C11.5027965 2.11068353 8.64493414 1.97953478 5.625 2.0625 C2 2 2 2 0 0 Z " fill="#2EB14F" transform="translate(507,455)"/>
<path d="M0 0 C0.598125 0.20625 1.19625 0.4125 1.8125 0.625 C0.1625 2.275 -1.4875 3.925 -3.1875 5.625 C-3.8475 4.305 -4.5075 2.985 -5.1875 1.625 C-2.1875 -0.375 -2.1875 -0.375 0 0 Z " fill="#44B964" transform="translate(449.1875,350.375)"/>
<path d="M0 0 C0 3 0 3 -1.375 4.5 C-1.91125 4.995 -2.4475 5.49 -3 6 C-3.66 6.99 -4.32 7.98 -5 9 C-5.33 7.68 -5.66 6.36 -6 5 C-4.02 3.35 -2.04 1.7 0 0 Z " fill="#12643E" transform="translate(471,681)"/>
<path d="M0 0 C0.99 0.66 1.98 1.32 3 2 C2.525625 2.350625 2.05125 2.70125 1.5625 3.0625 C-0.67873825 5.84163543 -0.67117658 8.5144717 -1 12 C-1.33 12 -1.66 12 -2 12 C-2.05395478 10.37536158 -2.09277195 8.75021459 -2.125 7.125 C-2.14820313 6.22007812 -2.17140625 5.31515625 -2.1953125 4.3828125 C-2 2 -2 2 0 0 Z " fill="#EB9120" transform="translate(485,417)"/>
<path d="M0 0 C0.66 1.32 1.32 2.64 2 4 C0.35 4.33 -1.3 4.66 -3 5 C-3.33 4.01 -3.66 3.02 -4 2 C-2.68 1.34 -1.36 0.68 0 0 Z " fill="#248A49" transform="translate(455,355)"/>
</svg>
